<svg version="1.1" xmlns="http://www.w3.org/2000/svg" viewBox="0 0 1587.2422676265396 887.053161111421" width="1587.2422676265396" height="887.053161111421">
  <!-- svg-source:excalidraw -->
  
  <defs>
    <style class="style-fonts">
      @font-face {
        font-family: "Virgil";
        src: url("https://excalidraw.com/Virgil.woff2");
      }
      @font-face {
        font-family: "Cascadia";
        src: url("https://excalidraw.com/Cascadia.woff2");
      }
      @font-face {
        font-family: "Assistant";
        src: url("https://excalidraw.com/Assistant-Regular.woff2");
      }
    </style>
    
  </defs>
  <g stroke-linecap="round" transform="translate(15.509825299332078 805.5781741387334) rotate(0 34.99528229550151 32.87115594587506)"><path d="M47.86 2.76 C54.18 5.1, 59.53 11.44, 63.41 16.66 C67.28 21.88, 71.64 27.57, 71.1 34.05 C70.56 40.53, 64.7 50.33, 60.19 55.54 C55.67 60.75, 50.24 63.74, 44 65.33 C37.76 66.91, 28.96 67.88, 22.75 65.07 C16.53 62.25, 10.32 53.95, 6.72 48.46 C3.11 42.97, 0.63 38.41, 1.1 32.12 C1.56 25.83, 5.5 15.88, 9.51 10.73 C13.52 5.58, 16.39 1.54, 25.16 1.23 C33.92 0.91, 54.98 5.61, 62.09 8.83 C69.2 12.04, 68.77 20, 67.82 20.5 M13.53 6.77 C18.23 3.36, 26.31 2.95, 33.43 2.99 C40.55 3.03, 50.3 3.83, 56.26 7.01 C62.23 10.2, 67.15 16.32, 69.22 22.11 C71.29 27.89, 71.1 35.29, 68.66 41.73 C66.22 48.18, 59.64 56.66, 54.58 60.78 C49.53 64.9, 44.87 66.32, 38.31 66.47 C31.75 66.62, 21.71 65.79, 15.23 61.67 C8.74 57.54, 1.75 48.58, -0.59 41.74 C-2.92 34.9, -1.37 26.86, 1.22 20.64 C3.81 14.41, 12.59 6.12, 14.95 4.37 C17.32 2.62, 15.17 9.62, 15.4 10.12" stroke="#1e1e1e" stroke-width="1" fill="none"></path></g><g stroke-linecap="round" transform="translate(169.27984856495823 662.1769106099712) rotate(0 77.92881738858614 57.98643784081351)"><path d="M52.8 4.3 C62.6 0.24, 74.62 -2.2, 85.5 -1.32 C96.37 -0.44, 108.45 5.03, 118.05 9.59 C127.64 14.14, 137.2 19.16, 143.08 26 C148.97 32.85, 151.58 42.54, 153.37 50.64 C155.15 58.74, 156.87 66.66, 153.81 74.61 C150.75 82.55, 143.28 91.67, 135.01 98.28 C126.74 104.9, 115.1 111.29, 104.19 114.29 C93.28 117.28, 80.55 117.08, 69.54 116.25 C58.53 115.42, 47.78 113.66, 38.13 109.32 C28.49 104.98, 17.98 97.63, 11.66 90.22 C5.33 82.82, 1.75 73.31, 0.17 64.88 C-1.41 56.46, -1.66 47.42, 2.19 39.65 C6.05 31.88, 10.54 24.65, 23.31 18.28 C36.08 11.9, 64.4 3.3, 78.79 1.38 C93.18 -0.54, 109.46 5.95, 109.63 6.75 M75.91 -1.53 C87.17 -2.47, 101.7 0.11, 111.96 4.03 C122.23 7.96, 130.31 15.25, 137.53 22.04 C144.75 28.82, 152.69 37.25, 155.29 44.74 C157.89 52.24, 156.07 58.67, 153.13 67.02 C150.18 75.37, 143.8 87.86, 137.62 94.84 C131.43 101.82, 125.52 105.52, 116.01 108.9 C106.49 112.28, 92.65 115.29, 80.54 115.12 C68.43 114.96, 53.43 111.1, 43.34 107.9 C33.24 104.71, 26.51 102.15, 19.95 95.95 C13.39 89.75, 7.5 78.48, 3.98 70.69 C0.47 62.91, -3.33 57.01, -1.13 49.25 C1.08 41.49, 10.09 31.37, 17.2 24.12 C24.31 16.88, 31.24 9.41, 41.53 5.79 C51.82 2.16, 73.04 3.56, 78.94 2.35 C84.84 1.15, 77.58 -2.21, 76.93 -1.44" stroke="#1e1e1e" stroke-width="1" fill="none"></path></g><g stroke-linecap="round" transform="translate(206.52894558104435 31.02474316978396) rotate(0.8403803566305329 681.0395269647488 333.7043758016699)"><path d="M476.45 15.79 C507.75 4.92, 550.24 5.56, 588.23 3.16 C626.21 0.75, 666.15 1.03, 704.34 1.35 C742.52 1.67, 779.64 1.26, 817.34 5.09 C855.04 8.91, 894.43 17.28, 930.56 24.31 C966.69 31.35, 1001.38 37.74, 1034.11 47.31 C1066.85 56.89, 1098.5 69.34, 1126.97 81.76 C1155.44 94.18, 1180.98 107.24, 1204.94 121.81 C1228.89 136.39, 1251.22 152.78, 1270.7 169.2 C1290.18 185.61, 1308.15 202.62, 1321.82 220.31 C1335.49 237.99, 1345.91 257.15, 1352.72 275.3 C1359.53 293.45, 1362.5 310.92, 1362.67 329.22 C1362.85 347.51, 1359.73 366.44, 1353.75 385.06 C1347.77 403.68, 1339.19 422.59, 1326.78 440.93 C1314.37 459.28, 1298.19 478.42, 1279.28 495.14 C1260.38 511.87, 1236.97 526.91, 1213.36 541.29 C1189.75 555.67, 1166.01 568.78, 1137.62 581.4 C1109.24 594.01, 1075.84 606.86, 1043.06 616.99 C1010.27 627.13, 976.33 635.23, 940.91 642.22 C905.48 649.21, 867.8 655.01, 830.52 658.92 C793.24 662.84, 755.62 664.7, 717.23 665.73 C678.84 666.76, 638.68 667.32, 600.17 665.12 C561.65 662.92, 522.58 658.15, 486.12 652.52 C449.66 646.89, 415.47 639.76, 381.38 631.34 C347.29 622.93, 312.56 613.07, 281.59 602.03 C250.62 591, 222.63 578.42, 195.55 565.13 C168.48 551.85, 141.22 537.27, 119.15 522.32 C97.09 507.37, 79.16 492.57, 63.16 475.42 C47.16 458.28, 33.12 437.75, 23.15 419.46 C13.18 401.16, 6.78 383.82, 3.36 365.65 C-0.06 347.48, -0.53 328.96, 2.62 310.45 C5.78 291.93, 13.36 272.97, 22.27 254.55 C31.18 236.12, 40.75 217.53, 56.07 199.9 C71.39 182.26, 92.68 164.62, 114.19 148.73 C135.71 132.84, 158.89 118.14, 185.16 104.56 C211.44 90.98, 241.13 78.34, 271.84 67.23 C302.56 56.12, 321.63 48.41, 369.45 37.9 C417.28 27.39, 513.27 9.32, 558.79 4.17 C604.31 -0.97, 640.87 1.42, 642.56 7.02 M595.36 0.81 C630.02 -6.15, 667.35 1.41, 705.04 2.68 C742.73 3.95, 783.45 4.48, 821.48 8.42 C859.52 12.35, 897.38 19.44, 933.24 26.29 C969.1 33.13, 1003.61 40.51, 1036.63 49.46 C1069.66 58.41, 1102.94 67.28, 1131.41 79.96 C1159.88 92.65, 1183.28 110.6, 1207.45 125.57 C1231.62 140.55, 1257.25 153.6, 1276.41 169.79 C1295.57 185.98, 1309.87 204.51, 1322.41 222.73 C1334.95 240.95, 1345.21 260.71, 1351.66 279.12 C1358.11 297.53, 1361.04 314.6, 1361.11 333.2 C1361.17 351.8, 1358.44 372.61, 1352.04 390.71 C1345.63 408.82, 1335.39 424.1, 1322.7 441.84 C1310 459.58, 1294.41 480.36, 1275.87 497.14 C1257.32 513.92, 1235.09 528.52, 1211.43 542.54 C1187.78 556.55, 1162.66 568.54, 1133.95 581.23 C1105.24 593.92, 1071.56 608.13, 1039.17 618.67 C1006.77 629.21, 974.95 637.69, 939.56 644.48 C904.18 651.26, 865.2 655.27, 826.87 659.39 C788.54 663.51, 747.49 668.48, 709.58 669.18 C671.67 669.88, 637.2 666.42, 599.42 663.59 C561.64 660.77, 520.51 657.58, 482.9 652.23 C445.29 646.87, 407.83 639.78, 373.78 631.48 C339.72 623.17, 309.35 613.04, 278.56 602.4 C247.76 591.75, 215.49 581.48, 189.01 567.61 C162.53 553.75, 141.45 535.21, 119.68 519.19 C97.91 503.18, 74.71 488.19, 58.41 471.52 C42.11 454.85, 31.58 437.12, 21.86 419.16 C12.14 401.2, 3.71 382.31, 0.07 363.76 C-3.57 345.21, -3.33 326.52, 0.02 307.86 C3.38 289.2, 10.5 269.85, 20.2 251.78 C29.9 233.72, 42.35 216.55, 58.21 199.49 C74.07 182.44, 94.01 164.95, 115.36 149.45 C136.71 133.94, 159.59 120.27, 186.31 106.46 C213.03 92.64, 245.11 78.49, 275.7 66.57 C306.28 54.64, 336.21 43.24, 369.8 34.91 C403.38 26.58, 439.75 21.65, 477.19 16.59 C514.62 11.53, 574.44 5.71, 594.42 4.56 C614.4 3.41, 596.08 4.22, 597.08 9.7" stroke="#1e1e1e" stroke-width="1" fill="none"></path></g><g stroke-linecap="round" transform="translate(207.9653914703531 13.401999506883158) rotate(4.796212544423016 685.5198685946375 353.0675479199963)"><path d="M330.08 52.34 C354.76 37.66, 397.57 31.17, 432.12 23.51 C466.67 15.84, 500.64 9.95, 537.39 6.36 C574.13 2.77, 615.11 2.63, 652.6 1.96 C690.09 1.3, 725.4 0.28, 762.33 2.39 C799.26 4.5, 837.58 9.27, 874.16 14.63 C910.74 19.99, 947.79 26.52, 981.82 34.55 C1015.84 42.59, 1047.44 51.44, 1078.32 62.83 C1109.21 74.22, 1140.31 89.21, 1167.14 102.89 C1193.98 116.57, 1217.07 129.43, 1239.31 144.9 C1261.54 160.37, 1283.7 178.06, 1300.55 195.72 C1317.4 213.38, 1329.95 232.73, 1340.42 250.85 C1350.89 268.97, 1358.47 285.38, 1363.39 304.44 C1368.31 323.51, 1371.23 345.56, 1369.94 365.26 C1368.66 384.96, 1362.61 403.77, 1355.67 422.65 C1348.74 441.52, 1341.13 460.74, 1328.33 478.53 C1315.53 496.32, 1297.84 512.76, 1278.87 529.38 C1259.91 545.99, 1238.71 563.02, 1214.53 578.22 C1190.35 593.41, 1162.31 607.52, 1133.81 620.55 C1105.31 633.58, 1075.53 646.46, 1043.52 656.4 C1011.5 666.34, 977.18 673.46, 941.74 680.19 C906.31 686.93, 867.74 692.27, 830.89 696.82 C794.04 701.37, 758.3 706.67, 720.64 707.5 C682.98 708.33, 642.21 704.47, 604.93 701.81 C567.65 699.15, 532.75 696.73, 496.94 691.56 C461.13 686.38, 424.08 679.1, 390.08 670.77 C356.08 662.45, 323.58 652.36, 292.95 641.61 C262.33 630.86, 233.47 619.71, 206.35 606.27 C179.22 592.82, 152.49 576.69, 130.22 560.92 C107.95 545.15, 89.57 529.07, 72.72 511.62 C55.87 494.16, 40.1 474.77, 29.15 456.19 C18.2 437.61, 11.7 419.08, 7.03 400.15 C2.35 381.21, -0.13 361.93, 1.09 342.58 C2.31 323.23, 7.01 303.07, 14.36 284.06 C21.71 265.05, 32.19 246.66, 45.18 228.51 C58.17 210.35, 73.5 191.83, 92.3 175.13 C111.09 158.42, 133.84 143.24, 157.96 128.28 C182.08 113.32, 201.45 100.36, 237 85.36 C272.54 70.36, 340.32 47.02, 371.23 38.28 C402.14 29.55, 416.98 27.63, 422.44 32.97 M505.21 11.39 C536.98 0.24, 582.88 1.84, 620.15 -0.41 C657.42 -2.65, 691.32 -4.13, 728.84 -2.06 C766.35 0, 808.16 7.39, 845.23 11.97 C882.31 16.56, 917.01 18.62, 951.29 25.46 C985.57 32.29, 1018.97 42.63, 1050.92 52.97 C1082.87 63.32, 1114.6 74.83, 1142.99 87.53 C1171.39 100.24, 1197.87 113.67, 1221.3 129.19 C1244.72 144.7, 1265.2 163.19, 1283.53 180.64 C1301.86 198.09, 1318.37 215.69, 1331.27 233.89 C1344.16 252.09, 1354.51 271.33, 1360.89 289.85 C1367.28 308.36, 1369.03 325.8, 1369.57 344.97 C1370.11 364.15, 1369.56 384.88, 1364.14 404.91 C1358.72 424.93, 1348.87 446.18, 1337.06 465.12 C1325.25 484.05, 1310.77 501.69, 1293.29 518.53 C1275.81 535.36, 1255.01 551.45, 1232.19 566.15 C1209.37 580.85, 1183.14 593.19, 1156.37 606.72 C1129.61 620.26, 1102.4 635.96, 1071.6 647.36 C1040.81 658.77, 1006.55 667.75, 971.6 675.15 C936.66 682.55, 898.74 687.1, 861.93 691.77 C825.13 696.44, 788.3 700.77, 750.79 703.15 C713.28 705.52, 673.64 707.28, 636.87 706.01 C600.09 704.75, 566 700.56, 530.14 695.55 C494.29 690.53, 456.3 683.53, 421.73 675.94 C387.16 668.35, 355 659.7, 322.69 650 C290.38 640.3, 256.87 630.75, 227.87 617.73 C198.87 604.72, 171.83 587.09, 148.69 571.91 C125.55 556.72, 106.81 543.46, 89.05 526.61 C71.29 509.77, 55.59 489.45, 42.12 470.86 C28.65 452.27, 15.63 434.1, 8.23 415.09 C0.84 396.07, -2.04 375.46, -2.26 356.76 C-2.48 338.07, 1.07 322.09, 6.91 302.9 C12.76 283.71, 20.76 260.66, 32.8 241.64 C44.85 222.61, 62.08 205.48, 79.2 188.75 C96.32 172.02, 113.26 156.06, 135.53 141.26 C157.8 126.45, 185.63 113.66, 212.8 99.92 C239.98 86.18, 267.55 69.82, 298.56 58.83 C329.56 47.84, 364.41 41.98, 398.83 33.97 C433.26 25.96, 486.5 13.1, 505.13 10.77 C523.76 8.44, 506.91 14.42, 510.61 20" stroke="#1e1e1e" stroke-width="1" fill="none"></path></g><g stroke-linecap="round" transform="translate(174.07892671138143 666.9208693739885) rotate(19.253760436601183 77.92881738858614 57.98643784081351)"><path d="M144 25.13 C151.23 31.18, 155.85 41.96, 156.86 50.19 C157.87 58.42, 154.12 66.79, 150.06 74.51 C145.99 82.22, 139.67 89.98, 132.47 96.48 C125.28 102.98, 117.24 110.47, 106.87 113.51 C96.49 116.55, 81.42 115.72, 70.23 114.71 C59.04 113.71, 49.37 111.69, 39.73 107.5 C30.08 103.32, 19.19 96.41, 12.38 89.6 C5.58 82.8, 0.35 75.02, -1.11 66.69 C-2.56 58.37, -0.43 47.85, 3.66 39.65 C7.75 31.45, 15.29 23.38, 23.41 17.52 C31.53 11.66, 41.93 7.25, 52.36 4.47 C62.79 1.69, 74.84 0.5, 85.99 0.84 C97.13 1.19, 108.38 0.19, 119.23 6.54 C130.08 12.89, 145.51 31.72, 151.08 38.94 C156.65 46.16, 153.88 49.82, 152.65 49.85 M123.65 12.83 C133.13 16.66, 145.13 24.79, 150.32 32.59 C155.52 40.38, 155.65 51.13, 154.81 59.6 C153.97 68.06, 150.14 76.45, 145.29 83.37 C140.44 90.3, 134.03 95.46, 125.7 101.14 C117.38 106.81, 105.81 114.87, 95.34 117.42 C84.87 119.97, 74.26 118.82, 62.9 116.45 C51.54 114.08, 36.22 109.12, 27.18 103.2 C18.13 97.28, 13.14 88.9, 8.6 80.95 C4.07 72.99, -0.34 62.98, -0.06 55.45 C0.22 47.92, 5.5 42.71, 10.31 35.77 C15.12 28.84, 20.91 19.62, 28.82 13.84 C36.73 8.06, 46.67 3.03, 57.76 1.1 C68.85 -0.82, 83.67 0.71, 95.36 2.29 C107.05 3.87, 122.73 9.14, 127.91 10.59 C133.09 12.04, 127.14 9.47, 126.42 11" stroke="#1e1e1e" stroke-width="1" fill="none"></path></g><g stroke-linecap="round" transform="translate(9.503664820069389 808.1490495131861) rotate(21.583911803499763 38.01749767133924 34.17999297431629)"><path d="M28.15 0.92 C35.2 -0.75, 46.55 1.54, 53.47 4.11 C60.4 6.67, 65.91 11.14, 69.71 16.3 C73.51 21.46, 76.85 28.67, 76.26 35.09 C75.68 41.5, 71.23 49.4, 66.19 54.78 C61.14 60.16, 53.13 65.62, 46.02 67.36 C38.9 69.11, 30.55 67.67, 23.52 65.25 C16.5 62.83, 7.91 58.68, 3.85 52.84 C-0.21 47, -1.72 36.85, -0.85 30.21 C0.01 23.57, 0.04 17.46, 9.04 13.01 C18.04 8.55, 42.58 2.52, 53.12 3.47 C63.66 4.42, 72.76 18.32, 72.27 18.72 M16.97 3.89 C22.38 -0.48, 32.79 1, 39.93 1.3 C47.07 1.61, 53.72 1.63, 59.79 5.7 C65.85 9.77, 73.76 19.46, 76.32 25.7 C78.88 31.93, 77.41 37.56, 75.14 43.11 C72.87 48.65, 69.18 54.28, 62.69 58.97 C56.19 63.66, 44.2 70.92, 36.17 71.25 C28.14 71.58, 19.7 65.2, 14.5 60.93 C9.3 56.66, 6.91 51.41, 4.97 45.64 C3.03 39.87, 1.47 32.69, 2.87 26.29 C4.26 19.9, 11.41 10.27, 13.34 7.27 C15.27 4.26, 13.42 8.01, 14.46 8.27" stroke="#1e1e1e" stroke-width="1" fill="none"></path></g></svg>